<mxfile host="app.diagrams.net" modified="2024-01-31T10:24:11.463Z" agent="Mozilla/5.0 (Macintosh; Intel Mac OS X 10_15_7) AppleWebKit/537.36 (KHTML, like Gecko) Chrome/120.0.0.0 Safari/537.36" etag="ubdfpgbdVha_aQvAa-va" version="23.0.2" type="device">
  <diagram name="ページ1" id="_PVVOGX73MZkp8vrTvGJ">
    <mxGraphModel dx="734" dy="466" grid="1" gridSize="10" guides="1" tooltips="1" connect="1" arrows="1" fold="1" page="1" pageScale="1" pageWidth="827" pageHeight="1169" math="0" shadow="0">
      <root>
        <mxCell id="0" />
        <mxCell id="1" parent="0" />
        <mxCell id="H7TCyDV6Q7ufUwkVOGZ8-99" value="" style="rounded=0;whiteSpace=wrap;html=1;" vertex="1" parent="1">
          <mxGeometry x="10" y="20" width="570" height="430" as="geometry" />
        </mxCell>
        <mxCell id="H7TCyDV6Q7ufUwkVOGZ8-37" value="" style="rounded=0;whiteSpace=wrap;html=1;fillStyle=auto;" vertex="1" parent="1">
          <mxGeometry x="30" y="40" width="380" height="400" as="geometry" />
        </mxCell>
        <mxCell id="H7TCyDV6Q7ufUwkVOGZ8-3" value="&lt;meta charset=&quot;utf-8&quot;&gt;&lt;span style=&quot;color: rgb(0, 0, 0); font-family: Helvetica; font-size: 12px; font-style: normal; font-variant-ligatures: normal; font-variant-caps: normal; font-weight: 400; letter-spacing: normal; orphans: 2; text-align: center; text-indent: 0px; text-transform: none; widows: 2; word-spacing: 0px; -webkit-text-stroke-width: 0px; background-color: rgb(251, 251, 251); text-decoration-thickness: initial; text-decoration-style: initial; text-decoration-color: initial; float: none; display: inline !important;&quot;&gt;Congnito&amp;nbsp;&lt;/span&gt;&lt;br style=&quot;border-color: var(--border-color); color: rgb(0, 0, 0); font-family: Helvetica; font-size: 12px; font-style: normal; font-variant-ligatures: normal; font-variant-caps: normal; font-weight: 400; letter-spacing: normal; orphans: 2; text-align: center; text-indent: 0px; text-transform: none; widows: 2; word-spacing: 0px; -webkit-text-stroke-width: 0px; background-color: rgb(251, 251, 251); text-decoration-thickness: initial; text-decoration-style: initial; text-decoration-color: initial;&quot;&gt;&lt;span style=&quot;color: rgb(0, 0, 0); font-family: Helvetica; font-size: 12px; font-style: normal; font-variant-ligatures: normal; font-variant-caps: normal; font-weight: 400; letter-spacing: normal; orphans: 2; text-align: center; text-indent: 0px; text-transform: none; widows: 2; word-spacing: 0px; -webkit-text-stroke-width: 0px; background-color: rgb(251, 251, 251); text-decoration-thickness: initial; text-decoration-style: initial; text-decoration-color: initial; float: none; display: inline !important;&quot;&gt;&amp;nbsp;Userpool&lt;/span&gt;" style="sketch=0;points=[[0,0,0],[0.25,0,0],[0.5,0,0],[0.75,0,0],[1,0,0],[0,1,0],[0.25,1,0],[0.5,1,0],[0.75,1,0],[1,1,0],[0,0.25,0],[0,0.5,0],[0,0.75,0],[1,0.25,0],[1,0.5,0],[1,0.75,0]];outlineConnect=0;fontColor=#232F3E;fillColor=#DD344C;strokeColor=#ffffff;dashed=0;verticalLabelPosition=bottom;verticalAlign=top;align=center;html=1;fontSize=12;fontStyle=0;aspect=fixed;shape=mxgraph.aws4.resourceIcon;resIcon=mxgraph.aws4.cognito;" vertex="1" parent="1">
          <mxGeometry x="480" y="115" width="78" height="78" as="geometry" />
        </mxCell>
        <mxCell id="H7TCyDV6Q7ufUwkVOGZ8-95" style="edgeStyle=orthogonalEdgeStyle;rounded=0;orthogonalLoop=1;jettySize=auto;html=1;exitX=0;exitY=0.75;exitDx=0;exitDy=0;exitPerimeter=0;entryX=1;entryY=0.75;entryDx=0;entryDy=0;" edge="1" parent="1" source="H7TCyDV6Q7ufUwkVOGZ8-5" target="H7TCyDV6Q7ufUwkVOGZ8-61">
          <mxGeometry relative="1" as="geometry" />
        </mxCell>
        <mxCell id="H7TCyDV6Q7ufUwkVOGZ8-5" value="&lt;meta charset=&quot;utf-8&quot;&gt;&lt;span style=&quot;color: rgb(0, 0, 0); font-family: Helvetica; font-size: 12px; font-style: normal; font-variant-ligatures: normal; font-variant-caps: normal; font-weight: 400; letter-spacing: normal; orphans: 2; text-align: center; text-indent: 0px; text-transform: none; widows: 2; word-spacing: 0px; -webkit-text-stroke-width: 0px; background-color: rgb(251, 251, 251); text-decoration-thickness: initial; text-decoration-style: initial; text-decoration-color: initial; float: none; display: inline !important;&quot;&gt;API Gateway&lt;/span&gt;" style="sketch=0;points=[[0,0,0],[0.25,0,0],[0.5,0,0],[0.75,0,0],[1,0,0],[0,1,0],[0.25,1,0],[0.5,1,0],[0.75,1,0],[1,1,0],[0,0.25,0],[0,0.5,0],[0,0.75,0],[1,0.25,0],[1,0.5,0],[1,0.75,0]];outlineConnect=0;fontColor=#232F3E;fillColor=#E7157B;strokeColor=#ffffff;dashed=0;verticalLabelPosition=bottom;verticalAlign=top;align=center;html=1;fontSize=12;fontStyle=0;aspect=fixed;shape=mxgraph.aws4.resourceIcon;resIcon=mxgraph.aws4.api_gateway;" vertex="1" parent="1">
          <mxGeometry x="480" y="339" width="78" height="78" as="geometry" />
        </mxCell>
        <mxCell id="H7TCyDV6Q7ufUwkVOGZ8-36" value="" style="verticalLabelPosition=bottom;html=1;verticalAlign=top;align=center;strokeColor=none;fillColor=#00BEF2;shape=mxgraph.azure.mobile;pointerEvents=1;" vertex="1" parent="1">
          <mxGeometry x="40" y="48" width="19" height="40" as="geometry" />
        </mxCell>
        <mxCell id="H7TCyDV6Q7ufUwkVOGZ8-38" value="App" style="text;html=1;strokeColor=none;fillColor=none;align=center;verticalAlign=middle;whiteSpace=wrap;rounded=0;" vertex="1" parent="1">
          <mxGeometry x="60" y="40" width="60" height="30" as="geometry" />
        </mxCell>
        <mxCell id="H7TCyDV6Q7ufUwkVOGZ8-75" value="build" style="edgeStyle=orthogonalEdgeStyle;rounded=0;orthogonalLoop=1;jettySize=auto;html=1;entryX=0.5;entryY=0;entryDx=0;entryDy=0;" edge="1" parent="1" source="H7TCyDV6Q7ufUwkVOGZ8-41" target="H7TCyDV6Q7ufUwkVOGZ8-61">
          <mxGeometry relative="1" as="geometry" />
        </mxCell>
        <mxCell id="H7TCyDV6Q7ufUwkVOGZ8-41" value="" style="rounded=0;whiteSpace=wrap;html=1;" vertex="1" parent="1">
          <mxGeometry x="200" y="239" width="189" height="81" as="geometry" />
        </mxCell>
        <mxCell id="H7TCyDV6Q7ufUwkVOGZ8-42" value="APIFactory" style="text;html=1;strokeColor=none;fillColor=none;align=center;verticalAlign=middle;whiteSpace=wrap;rounded=0;" vertex="1" parent="1">
          <mxGeometry x="200" y="239" width="70" height="30" as="geometry" />
        </mxCell>
        <mxCell id="H7TCyDV6Q7ufUwkVOGZ8-53" value="CredentialProvider" style="rounded=0;whiteSpace=wrap;html=1;dashed=1;" vertex="1" parent="1">
          <mxGeometry x="199" y="55" width="190" height="26" as="geometry" />
        </mxCell>
        <mxCell id="H7TCyDV6Q7ufUwkVOGZ8-58" value="sharedpreference" style="rounded=1;whiteSpace=wrap;html=1;" vertex="1" parent="1">
          <mxGeometry x="40" y="180" width="130" height="84" as="geometry" />
        </mxCell>
        <mxCell id="H7TCyDV6Q7ufUwkVOGZ8-59" value="raw&lt;br&gt;(awsconfiguration.json)" style="rounded=1;whiteSpace=wrap;html=1;" vertex="1" parent="1">
          <mxGeometry x="40" y="102" width="130" height="66" as="geometry" />
        </mxCell>
        <mxCell id="H7TCyDV6Q7ufUwkVOGZ8-96" style="edgeStyle=orthogonalEdgeStyle;rounded=0;orthogonalLoop=1;jettySize=auto;html=1;exitX=1;exitY=0.25;exitDx=0;exitDy=0;" edge="1" parent="1" source="H7TCyDV6Q7ufUwkVOGZ8-61" target="H7TCyDV6Q7ufUwkVOGZ8-5">
          <mxGeometry relative="1" as="geometry" />
        </mxCell>
        <mxCell id="H7TCyDV6Q7ufUwkVOGZ8-61" value="(Created SDK)" style="rounded=0;whiteSpace=wrap;html=1;" vertex="1" parent="1">
          <mxGeometry x="199" y="360" width="191" height="70" as="geometry" />
        </mxCell>
        <mxCell id="H7TCyDV6Q7ufUwkVOGZ8-97" style="edgeStyle=orthogonalEdgeStyle;rounded=0;orthogonalLoop=1;jettySize=auto;html=1;dashed=1;" edge="1" parent="1" source="H7TCyDV6Q7ufUwkVOGZ8-39" target="H7TCyDV6Q7ufUwkVOGZ8-53">
          <mxGeometry relative="1" as="geometry" />
        </mxCell>
        <mxCell id="H7TCyDV6Q7ufUwkVOGZ8-101" style="edgeStyle=orthogonalEdgeStyle;rounded=0;orthogonalLoop=1;jettySize=auto;html=1;exitX=0;exitY=0.25;exitDx=0;exitDy=0;entryX=1;entryY=0.5;entryDx=0;entryDy=0;" edge="1" parent="1" source="H7TCyDV6Q7ufUwkVOGZ8-39" target="H7TCyDV6Q7ufUwkVOGZ8-59">
          <mxGeometry relative="1" as="geometry" />
        </mxCell>
        <mxCell id="H7TCyDV6Q7ufUwkVOGZ8-39" value="" style="rounded=0;whiteSpace=wrap;html=1;" vertex="1" parent="1">
          <mxGeometry x="199" y="110" width="191" height="100" as="geometry" />
        </mxCell>
        <mxCell id="H7TCyDV6Q7ufUwkVOGZ8-40" value="AWSMoblieClient" style="text;html=1;strokeColor=none;fillColor=none;align=center;verticalAlign=middle;whiteSpace=wrap;rounded=0;" vertex="1" parent="1">
          <mxGeometry x="205" y="111" width="110" height="26" as="geometry" />
        </mxCell>
        <mxCell id="H7TCyDV6Q7ufUwkVOGZ8-91" style="edgeStyle=orthogonalEdgeStyle;rounded=0;orthogonalLoop=1;jettySize=auto;html=1;exitX=0;exitY=0.25;exitDx=0;exitDy=0;entryX=1;entryY=0.25;entryDx=0;entryDy=0;" edge="1" parent="1" source="H7TCyDV6Q7ufUwkVOGZ8-56" target="H7TCyDV6Q7ufUwkVOGZ8-58">
          <mxGeometry relative="1" as="geometry" />
        </mxCell>
        <mxCell id="H7TCyDV6Q7ufUwkVOGZ8-56" value="cognitoidentity&lt;br&gt;(tokens etc...)" style="rounded=0;whiteSpace=wrap;html=1;" vertex="1" parent="1">
          <mxGeometry x="249" y="138" width="90" height="52" as="geometry" />
        </mxCell>
        <mxCell id="H7TCyDV6Q7ufUwkVOGZ8-69" value="creadentialProvider" style="rounded=0;whiteSpace=wrap;html=1;" vertex="1" parent="1">
          <mxGeometry x="234.5" y="273" width="120" height="23" as="geometry" />
        </mxCell>
        <mxCell id="H7TCyDV6Q7ufUwkVOGZ8-82" style="edgeStyle=orthogonalEdgeStyle;rounded=0;orthogonalLoop=1;jettySize=auto;html=1;exitX=1;exitY=0.25;exitDx=0;exitDy=0;entryX=0;entryY=0.25;entryDx=0;entryDy=0;entryPerimeter=0;" edge="1" parent="1" source="H7TCyDV6Q7ufUwkVOGZ8-39" target="H7TCyDV6Q7ufUwkVOGZ8-3">
          <mxGeometry relative="1" as="geometry" />
        </mxCell>
        <mxCell id="H7TCyDV6Q7ufUwkVOGZ8-84" style="edgeStyle=orthogonalEdgeStyle;rounded=0;orthogonalLoop=1;jettySize=auto;html=1;entryX=1;entryY=0.5;entryDx=0;entryDy=0;" edge="1" parent="1" source="H7TCyDV6Q7ufUwkVOGZ8-3" target="H7TCyDV6Q7ufUwkVOGZ8-56">
          <mxGeometry relative="1" as="geometry">
            <Array as="points">
              <mxPoint x="380" y="154" />
              <mxPoint x="380" y="164" />
            </Array>
          </mxGeometry>
        </mxCell>
        <mxCell id="H7TCyDV6Q7ufUwkVOGZ8-92" style="edgeStyle=orthogonalEdgeStyle;rounded=0;orthogonalLoop=1;jettySize=auto;html=1;exitX=1;exitY=0.75;exitDx=0;exitDy=0;entryX=0.25;entryY=1;entryDx=0;entryDy=0;" edge="1" parent="1" source="H7TCyDV6Q7ufUwkVOGZ8-58" target="H7TCyDV6Q7ufUwkVOGZ8-56">
          <mxGeometry relative="1" as="geometry">
            <Array as="points">
              <mxPoint x="170" y="220" />
              <mxPoint x="272" y="220" />
            </Array>
          </mxGeometry>
        </mxCell>
        <mxCell id="H7TCyDV6Q7ufUwkVOGZ8-104" value="" style="endArrow=none;html=1;rounded=0;entryX=0.5;entryY=1;entryDx=0;entryDy=0;strokeWidth=3;" edge="1" parent="1" source="H7TCyDV6Q7ufUwkVOGZ8-69" target="H7TCyDV6Q7ufUwkVOGZ8-39">
          <mxGeometry width="50" height="50" relative="1" as="geometry">
            <mxPoint x="270" y="230" as="sourcePoint" />
            <mxPoint x="320" y="180" as="targetPoint" />
          </mxGeometry>
        </mxCell>
      </root>
    </mxGraphModel>
  </diagram>
</mxfile>
